Coordinates
version=1
nRows=14
nColumns=40
inDegrees=yes

Units are S.I. units (second, meters, Newtons, ...)
Angles are in degrees.

endheader
time	pelvis_tilt	pelvis_list	pelvis_rotation	pelvis_tx	pelvis_ty	pelvis_tz	hip_flexion_r	hip_adduction_r	hip_rotation_r	knee_angle_r	knee_angle_r_beta	ankle_angle_r	subtalar_angle_r	mtp_angle_r	hip_flexion_l	hip_adduction_l	hip_rotation_l	knee_angle_l	knee_angle_l_beta	ankle_angle_l	subtalar_angle_l	mtp_angle_l	lumbar_extension	lumbar_bending	lumbar_rotation	arm_flex_r	arm_add_r	arm_rot_r	elbow_flex_r	pro_sup_r	wrist_flex_r	wrist_dev_r	arm_flex_l	arm_add_l	arm_rot_l	elbow_flex_l	pro_sup_l	wrist_flex_l	wrist_dev_l
     38.49878571	     -5.10571966	     -5.70502864	      7.04014168	      1.07301428	      0.92354398	      0.45114861	      2.96274881	      3.07065968	    -18.25954486	      9.16262173	      9.16262173	     12.78173654	      2.70135952	     -8.96049802	     30.85849235	     -8.57746837	     -1.74559437	     22.29424369	     22.29424369	      5.54938748	     -7.44605929	      8.25879335	     -9.07040341	      6.09698143	      3.82940302	     35.97093711	    -17.44509195	    -10.44609178	     89.16342291	     44.43314662	      0.00000000	      0.00000000	     -9.15877632	     -5.71487445	     -4.39511179	     23.05017430	     45.20830963	      0.00000000	      0.00000000
     38.51257143	     -5.01453141	     -5.79797212	      7.10307479	      1.07455880	      0.92267901	      0.44870824	      2.50332165	      3.08094836	    -17.84741884	      9.47284673	      9.47284673	     13.57426030	      2.15970412	     -7.70400303	     30.13755004	     -8.33239289	     -1.18090197	     22.50130767	     22.50130767	      4.24858964	     -9.09366787	      5.58309918	     -8.89516275	      6.07854503	      3.92950992	     35.12558443	    -16.73782549	    -11.71642477	     90.84507179	     44.44925388	      0.00000000	      0.00000000	     -9.14152353	     -5.91152130	     -4.54695815	     23.60106037	     45.26697401	      0.00000000	      0.00000000
     38.52635714	     -4.83485887	     -5.71284746	      7.10141364	      1.07632281	      0.92210081	      0.44609491	      1.87400165	      2.86436194	    -17.73515256	      9.68149688	      9.68149688	     13.96454358	      2.08448810	     -7.72518807	     29.43548558	     -8.10941571	     -1.16857543	     23.07566554	     23.07566554	      4.45691921	     -9.40379131	      5.26080111	     -8.72641449	      5.84247072	      3.90063018	     34.45152508	    -16.54475527	    -11.63210995	     90.65212496	     44.45290613	      0.00000000	      0.00000000	     -8.91724640	     -6.15735332	     -4.57219698	     23.67583843	     45.27932250	      0.00000000	      0.00000000
     38.54014286	     -4.71616774	     -5.59350270	      7.10163581	      1.07789098	      0.92158797	      0.44325701	      1.58822678	      2.51309117	    -17.46762407	     10.45097105	     10.45097105	     14.77225863	      1.69514166	     -6.64871375	     28.75793625	     -7.73449379	     -0.77972210	     23.40061031	     23.40061031	      4.08139998	    -10.56082199	      4.04538892	     -8.53407611	      5.59266926	      4.15406064	     33.45698266	    -16.52585758	    -12.10166366	     90.63083946	     44.49279870	      0.00000000	      0.00000000	     -8.43669304	     -6.42225065	     -4.66224354	     23.93437719	     45.33193975	      0.00000000	      0.00000000
     38.55392857	     -4.52519737	     -5.48009855	      7.14236395	      1.07950155	      0.92139852	      0.44023322	      1.13424883	      2.18404344	    -17.35003430	     11.05554304	     11.05554304	     15.60458819	      1.62208808	     -5.09729142	     28.08569940	     -7.41298618	     -0.49073700	     23.76948590	     23.76948590	      4.02914068	    -11.32089726	      2.96764464	     -8.44826687	      5.36558753	      4.13778600	     32.46460600	    -16.20741176	    -12.46891048	     90.64789069	     44.54820667	      0.00000000	      0.00000000	     -7.90331428	     -6.65688884	     -4.73928294	     24.00931535	     45.40286208	      0.00000000	      0.00000000
     38.56771429	     -4.33080678	     -5.31036678	      7.19724464	      1.08095331	      0.92141447	      0.43697296	      0.71985974	      1.75906432	    -17.26426853	     11.68002905	     11.68002905	     15.86023359	      1.33142085	     -4.98980171	     27.51729827	     -7.06099205	     -0.34165012	     24.25925248	     24.25925248	      4.49823544	    -11.67302777	      2.74326903	     -8.39989529	      5.15537594	      4.01362934	     31.49316261	    -15.99919677	    -12.39827175	     90.18974038	     44.56521539	      0.00000000	      0.00000000	     -7.31653570	     -6.89281937	     -4.76798666	     24.22726988	     45.42677515	      0.00000000	      0.00000000
     38.58150000	     -4.17626750	     -5.13348320	      7.25476349	      1.08219181	      0.92163483	      0.43356908	      0.53247093	      1.25653754	    -17.14155561	     12.63710633	     12.63710633	     16.12191532	      0.91849616	     -4.77465942	     27.00941885	     -6.68208715	     -0.16846994	     24.66599970	     24.66599970	      4.99881704	    -12.05746982	      2.61711392	     -8.31374658	      4.86476245	      3.98089152	     30.36784266	    -15.87039898	    -12.42114868	     89.46451747	     44.59463236	      0.00000000	      0.00000000	     -6.57382145	     -7.12618886	     -4.80324298	     24.51465164	     45.45522748	      0.00000000	      0.00000000
     38.59528571	     -3.96973058	     -5.07540893	      7.34011266	      1.08337641	      0.92219687	      0.43002595	      0.18660958	      0.90979843	    -17.12692713	     13.32747620	     13.32747620	     16.07659268	      0.68287464	     -4.69366109	     26.47163051	     -6.43672353	      0.05178731	     25.00881140	     25.00881140	      5.56046583	    -12.22221647	      2.40648956	     -8.34518184	      4.77321638	      3.71883408	     29.22101923	    -15.52777463	    -12.28567377	     88.90210794	     44.60674080	      0.00000000	      0.00000000	     -5.76384168	     -7.30867491	     -4.80883487	     24.81179019	     45.47361700	      0.00000000	      0.00000000
     38.60907143	     -3.91329199	     -4.85797147	      7.31652622	      1.08415341	      0.92271951	      0.42635903	      0.51098640	      0.17948299	    -16.97078231	     15.02087006	     15.02087006	     16.28813961	      0.15850873	     -4.60237175	     26.02053044	     -6.03941143	      0.02385034	     25.22853449	     25.22853449	      6.11247231	    -12.33180599	      2.39363857	     -8.22258682	      4.48957535	      3.91868427	     27.97158336	    -15.65510039	    -12.33320429	     87.49184323	     44.65862450	      0.00000000	      0.00000000	     -4.70344059	     -7.47727422	     -4.82597930	     25.21955542	     45.50284605	      0.00000000	      0.00000000
     38.62285714	     -3.81230249	     -4.79184089	      7.30565444	      1.08487367	      0.92347955	      0.42267235	      0.77984252	     -0.37568844	    -16.88728352	     16.62097113	     16.62097113	     16.30258895	     -0.24558358	     -4.49099953	     25.54629998	     -5.81890956	     -0.02606112	     25.42008731	     25.42008731	      6.73362047	    -12.29372416	      2.43729820	     -8.14604998	      4.40102427	      3.89752267	     26.75553983	    -15.52295545	    -12.22518630	     85.95340373	     44.71238914	      0.00000000	      0.00000000	     -3.63810526	     -7.61504567	     -4.80536405	     25.55214149	     45.52753376	      0.00000000	      0.00000000
     38.63664286	     -3.66707306	     -4.68013088	      7.23422151	      1.08549897	      0.92444074	      0.41895747	      1.15597470	     -1.03795890	    -16.74257382	     18.48656244	     18.48656244	     16.12660702	     -0.72535316	     -4.73089090	     24.92870991	     -5.59583473	     -0.24800736	     25.47003980	     25.47003980	      7.34743412	    -12.09248494	      2.32648767	     -8.19429592	      4.30229412	      3.97112568	     25.51545587	    -15.44512018	    -11.96821024	     84.45813911	     44.75473826	      0.00000000	      0.00000000	     -2.54116264	     -7.75193252	     -4.79050156	     25.99718298	     45.54877581	      0.00000000	      0.00000000
     38.65042857	     -3.51402180	     -4.63295833	      7.11224696	      1.08586116	      0.92547609	      0.41537887	      1.72964655	     -1.67434939	    -16.49464465	     20.65762190	     20.65762190	     15.80836825	     -1.28678421	     -5.17249352	     24.30177477	     -5.47868773	     -0.57610823	     25.47380660	     25.47380660	      7.82366598	    -11.80597825	      2.19993226	     -8.27979158	      4.24757046	      4.00730398	     24.20578655	    -15.37480230	    -11.63498754	     82.81700490	     44.79724088	      0.00000000	      0.00000000	     -1.37109309	     -7.86596252	     -4.76489457	     26.50943724	     45.56742488	      0.00000000	      0.00000000
     38.66421429	     -3.51595387	     -4.64684855	      6.91371838	      1.08604648	      0.92622112	      0.41201485	      2.70487281	     -2.27506886	    -16.03285112	     23.13277168	     23.13277168	     14.91665598	     -2.46139084	     -6.85341470	     23.82600847	     -5.46662216	     -1.06043333	     25.46734354	     25.46734354	      8.54941747	    -11.20019218	      2.30067887	     -8.06806523	      4.21518665	      3.50625262	     23.99842566	    -15.00658677	    -10.23110815	     78.72561142	     44.91863016	      0.00000000	      0.00000000	     -0.59807181	     -8.08037195	     -4.53930730	     27.20753489	     45.56440577	      0.00000000	      0.00000000
     38.67800000	     -3.39058104	     -4.56248069	      6.65980404	      1.08609573	      0.92713571	      0.40874783	      3.76272581	     -3.05404234	    -15.60389267	     26.04325771	     26.04325771	     14.31782696	     -3.24152641	     -7.54435116	     23.12249321	     -5.36689484	     -1.60010055	     25.32066722	     25.32066722	      8.97309470	    -10.83810630	      2.06496898	     -8.20354465	      4.11305168	      3.74494719	     22.62311183	    -15.00718328	     -9.81015090	     77.20713721	     44.95320780	      0.00000000	      0.00000000	      0.67503939	     -8.22152144	     -4.54973916	     27.94526468	     45.58932802	      0.00000000	      0.00000000
